<svg xmlns="http://www.w3.org/2000/svg" width="169" height="169" viewBox="0 0 169 169">
  <g id="Grupo_2256" data-name="Grupo 2256" transform="translate(-283.684 -313.477)">
    <circle id="Ellipse_7" data-name="Ellipse 7" cx="84.5" cy="84.5" r="84.5" transform="translate(283.684 313.477)" fill="#f4f3ee"/>
    <g id="Grupo_2253" data-name="Grupo 2253">
      <g id="Grupo_2252" data-name="Grupo 2252">
        <path id="Trazado_184573" data-name="Trazado 184573" d="M388.609,344.8l3.7-8.026,1.179.545,1.473,7.953,2.767-6,1.181.545-3.538,7.668,0,.014-.009,0-.162.348-1.18-.544-1.477-7.944-2.763,5.986Z" fill="#161615"/>
        <path id="Trazado_184574" data-name="Trazado 184574" d="M406.454,344.553c1.942,1.4,2.219,3.877.688,6.005s-3.977,2.659-5.917,1.262-2.227-3.883-.692-6.018S404.514,343.156,406.454,344.553Zm-4.865,2.008c-1.106,1.535-.942,3.267.383,4.221s3.009.552,4.115-.983.953-3.247-.379-4.207S402.682,345.042,401.589,346.561Z" fill="#161615"/>
        <path id="Trazado_184575" data-name="Trazado 184575" d="M413.278,350.156l.89.945-3.214,3.028c-1.611,1.517-1.845,2.708-.755,3.866s2.285.987,3.9-.53l3.214-3.028.891.945-3.215,3.029c-2.125,2-4.115,2.162-5.718.46s-1.338-3.679.8-5.688Z" fill="#161615"/>
        <path id="Trazado_184576" data-name="Trazado 184576" d="M413.828,364.115l7.406-4.838,1.724,2.64a2.874,2.874,0,0,1-3.97,4.047l-1.581,3.632-.853-1.307,1.524-3.395-.916-1.4-2.623,1.713Zm7.028-3.037-2.6,1.7,1.064,1.629a1.56,1.56,0,1,0,2.554-1.781Z" fill="#161615"/>
        <path id="Trazado_184577" data-name="Trazado 184577" d="M418.783,372.374l7.944-3.866.569,1.167-7.944,3.867Z" fill="#161615"/>
        <path id="Trazado_184578" data-name="Trazado 184578" d="M423.7,376.775a1.775,1.775,0,0,0-.846,2.279c.316.926,1.032,1.537,1.842,1.272.85-.28.872-1.113.785-2.072-.126-1.4-.446-3.036,1.4-3.67,1.6-.535,2.747.445,3.26,1.941.495,1.446.182,3-1.405,3.57l-.421-1.23a1.431,1.431,0,0,0,.645-1.937c-.283-.826-.9-1.363-1.638-1.121-.859.284-.71,1.168-.609,2.265.136,1.36.126,2.9-1.589,3.479-1.49.5-2.883-.486-3.442-2.086a2.945,2.945,0,0,1,1.593-3.921Z" fill="#161615"/>
        <path id="Trazado_184579" data-name="Trazado 184579" d="M423.51,385.348l8.726-1.42.208,1.285-3.716.6.665,4.086,3.715-.605.209,1.283L424.591,392l-.207-1.282,3.726-.607-.665-4.085-3.727.606Z" fill="#161615"/>
        <path id="Trazado_184580" data-name="Trazado 184580" d="M424.876,395.157l8.84.249-.037,1.3-4.656,2.721,4.5,2.989-.037,1.3-8.841-.249.037-1.3,6.355.179-3.575-2.433.03-1.049,3.7-2.228-6.355-.178Z" fill="#161615"/>
        <path id="Trazado_184581" data-name="Trazado 184581" d="M431.247,409.406l-2.412-.5-.785,3.788-1.273-.263.785-3.788-2.423-.5-.822,3.97-1.274-.264,1.088-5.243,8.653,1.794-1.068,5.152-1.273-.264Z" fill="#161615"/>
        <path id="Trazado_184582" data-name="Trazado 184582" d="M422.235,414.838l8.238,3.2-.47,1.212-7.846,1.961,6.155,2.391-.47,1.211-7.871-3.057-.014.006,0-.01-.359-.139.471-1.211,7.836-1.966-6.145-2.387Z" fill="#161615"/>
        <path id="Trazado_184583" data-name="Trazado 184583" d="M416.88,426.561l6.447,3.916,1.36-2.241,1.112.676-3.4,5.593-1.112-.676,1.361-2.24-6.446-3.916Z" fill="#161615"/>
        <path id="Trazado_184584" data-name="Trazado 184584" d="M409.759,436.208l6.206,6.3-3.75,3.693-.913-.927,2.824-2.781-1.731-1.757-2.757,2.717-.912-.926,2.757-2.717-2.649-2.69Z" fill="#161615"/>
        <path id="Trazado_184585" data-name="Trazado 184585" d="M403.606,441.965l5.133,7.2-2.566,1.829a2.747,2.747,0,0,1-4.105-.561,2.716,2.716,0,0,1-.1-3.238l-3.691-1.433,1.27-.9L403,446.242l1.365-.972-1.818-2.551Zm3.321,6.9-1.807-2.534-1.584,1.131a1.559,1.559,0,1,0,1.882,2.477Z" fill="#161615"/>
        <path id="Trazado_184586" data-name="Trazado 184586" d="M396.054,456.978c-2.164,1.02-4.467.059-5.584-2.311s-.4-4.768,1.766-5.788,4.477-.063,5.6,2.316S398.217,455.958,396.054,456.978Zm.605-5.228c-.807-1.713-2.4-2.409-3.878-1.714s-1.942,2.364-1.135,4.076,2.376,2.409,3.863,1.708S397.457,453.442,396.659,451.75Z" fill="#161615"/>
        <path id="Trazado_184587" data-name="Trazado 184587" d="M385.665,451.712l2.117,8.579-1.261.311-3.861-3.759-1.68,5.126-1.261.312L377.6,453.7l1.262-.312,1.522,6.166,1.389-4.09,1.018-.251,3.133,2.974-1.522-6.166Z" fill="#161615"/>
        <path id="Trazado_184588" data-name="Trazado 184588" d="M367.2,454.432l2.073,8.976-1.349-.091-1.5-6.433-1.974,6.2-1.329-.09-1.1-6.427-2.359,6.192-1.351-.091,3.278-8.644,1.329.09,1.052,6.184,1.907-5.983,1.329.09Z" fill="#161615"/>
        <path id="Trazado_184589" data-name="Trazado 184589" d="M356.02,453.018l-2,8.615-1.267-.293,2-8.615Z" fill="#161615"/>
        <path id="Trazado_184590" data-name="Trazado 184590" d="M349.23,451.075l-2.6,7.081,2.461.9-.447,1.222-6.144-2.252.448-1.221,2.46.9,2.6-7.081Z" fill="#161615"/>
        <path id="Trazado_184591" data-name="Trazado 184591" d="M342.821,448.463l-4.408,7.669-1.127-.648,1.877-3.266-3.591-2.065L333.7,453.42l-1.128-.647,4.408-7.671,1.128.648-1.882,3.276,3.591,2.064,1.882-3.275Z" fill="#161615"/>
        <path id="Trazado_184592" data-name="Trazado 184592" d="M334.294,443.111l-5.362,7.028-1.034-.788,5.363-7.03Z" fill="#161615"/>
        <path id="Trazado_184593" data-name="Trazado 184593" d="M330.6,440.254l-6.266,6.23-.916-.921,1.391-7.964-4.682,4.653-.915-.922,5.986-5.949v-.015l.008.006.272-.271.916.922-1.383,7.956,4.673-4.646Z" fill="#161615"/>
        <path id="Trazado_184594" data-name="Trazado 184594" d="M311.213,430.014l-.675-1.22,6.032-7.361.676,1.22-1.533,1.871,1.866,3.367,2.4-.3.675,1.219Zm3.641-4.444-2.449,2.988,3.831-.493Z" fill="#161615"/>
        <path id="Trazado_184595" data-name="Trazado 184595" d="M315.511,418.867l-8.4,2.772L306.7,420.4l4.814-6.507-6.278,2.069-.407-1.235,8.026-2.648.007-.013,0,.01.366-.12.407,1.235-4.8,6.505,6.267-2.067Z" fill="#161615"/>
        <path id="Trazado_184596" data-name="Trazado 184596" d="M312.51,408.78l-8.762,1.189-.367-2.7c-.375-2.763.99-4.534,3.795-4.915,2.783-.378,4.589.942,4.954,3.631Zm-7.648-.275,6.184-.84-.2-1.5a3.123,3.123,0,0,0-6.171.931Z" fill="#161615"/>
        <path id="Trazado_184597" data-name="Trazado 184597" d="M311.782,391.374l-9.129,1.206.219-1.334,6.544-.874-5.98-2.555.217-1.314,6.5-.48-5.938-2.938.22-1.335,8.29,4.085-.217,1.314-6.253.458,5.772,2.467-.216,1.315Z" fill="#161615"/>
        <path id="Trazado_184598" data-name="Trazado 184598" d="M314.244,380.4l-8.38-2.8.411-1.232,8.38,2.8Z" fill="#161615"/>
        <path id="Trazado_184599" data-name="Trazado 184599" d="M316.813,373.824l-6.8-3.251-1.13,2.364-1.174-.56,2.821-5.9,1.173.56-1.13,2.365,6.8,3.253Z" fill="#161615"/>
        <path id="Trazado_184600" data-name="Trazado 184600" d="M320.024,367.682l-7.219-5.109.752-1.063,3.074,2.176,2.392-3.378-3.074-2.176.751-1.062,7.218,5.11-.751,1.06-3.082-2.181-2.394,3.379,3.083,2.182Z" fill="#161615"/>
        <path id="Trazado_184601" data-name="Trazado 184601" d="M322.647,350.584c1.72-1.658,4.208-1.489,6.027.4s1.9,4.386.184,6.044-4.217,1.5-6.042-.4S320.926,352.244,322.647,350.584Zm1.1,5.144c1.313,1.361,3.045,1.51,4.22.378s1.081-2.862-.233-4.224-3.023-1.517-4.205-.377S322.453,354.381,323.751,355.728Z" fill="#161615"/>
        <path id="Trazado_184602" data-name="Trazado 184602" d="M329.373,344.847l1.091-.709,2.41,3.707c1.208,1.858,2.34,2.3,3.675,1.433s1.381-2.076.172-3.934l-2.41-3.708,1.09-.709,2.41,3.708c1.594,2.451,1.4,4.441-.564,5.716s-3.864.664-5.463-1.8Z" fill="#161615"/>
        <path id="Trazado_184603" data-name="Trazado 184603" d="M345.384,345.87l-2.958-6.936-2.411,1.029-.51-1.2,6.017-2.568.51,1.2-2.41,1.028,2.958,6.935Z" fill="#161615"/>
      </g>
      <circle id="Elipse_13" data-name="Elipse 13" cx="2.91" cy="2.91" r="2.91" transform="translate(366.213 332.546)" fill="#2b2b2b"/>
    </g>
    <g id="Grupo_2255" data-name="Grupo 2255">
      <g id="Grupo_2254" data-name="Grupo 2254">
        <path id="Trazado_184604" data-name="Trazado 184604" d="M367.909,381.443h-.068a5.705,5.705,0,0,1-4.189-2.07,9.859,9.859,0,0,1-2.219-6.576c.059-4.674,3-8.478,6.566-8.478h.066a5.836,5.836,0,0,1,4.65,2.655,10.069,10.069,0,0,1,1.756,5.991C374.413,377.64,371.469,381.443,367.909,381.443Zm.137-15.608c-2.784,0-5.049,3.131-5.1,6.98a8.329,8.329,0,0,0,1.842,5.557,4.158,4.158,0,0,0,3.071,1.555l.047.758v-.758c2.735,0,5-3.132,5.047-6.981a8.562,8.562,0,0,0-1.472-5.089A4.364,4.364,0,0,0,368.046,365.835Z" fill="#2b2b2b"/>
        <path id="Trazado_184605" data-name="Trazado 184605" d="M359.084,429.134a1.458,1.458,0,0,1-1.546-1.1,2.379,2.379,0,0,1,1.118-2.406,32.3,32.3,0,0,0,3.028-2.438c-4.014-1.19-15.789-4.715-18.147-5.816a9.439,9.439,0,0,1-2.81-1.978c-2.333,1.907-3.439,2.566-4.252,2.566-.846,0-1.324-.614-1.42-1.824-.055-.7.619-1.448,2.963-3.945a68.006,68.006,0,0,0,7.991-9.735,83.814,83.814,0,0,0,2.957-8.035c.767-2.26,1.429-4.212,1.74-4.906,1.534-3.413,7.53-9.294,10.961-9.294a2.448,2.448,0,0,1,1.471.446c.181.13.377.3.6.484a5.729,5.729,0,0,0,3.953,1.705,12.43,12.43,0,0,0,6.3-2.327,1.774,1.774,0,0,1,.965-.25c2.439,0,7.58,3.552,9.682,8.458.864,2.016,1.569,3.707,2.16,5.123a36.038,36.038,0,0,0,2.779,5.968c1.891,2.494,5.638,5.375,8.648,7.691,3.942,3.032,5.418,4.167,4.725,5.274a1.271,1.271,0,0,1-1.163.569h0a9.613,9.613,0,0,1-2.861-.8,11.094,11.094,0,0,0-3.016-.861.542.542,0,0,0-.3.052,3.443,3.443,0,0,0-.186.384,7.469,7.469,0,0,1-2.96,3.506c-.834.553-3.426,1.45-7.587,2.866a102.345,102.345,0,0,0-9.709,3.626c2.891,1.58,6.59,4.567,6.3,5.84a.884.884,0,0,1-.891.68,1.631,1.631,0,0,1-.512-.1c-1.522-.507-10.891-3.17-12.848-3.725-1.089.8-4.789,3.426-7.028,4.114A3.741,3.741,0,0,1,359.084,429.134Zm-.076-1.519a1.908,1.908,0,0,0,.724-.119c2.342-.719,6.823-4.068,6.868-4.1l.3-.225.361.1c.386.11,7.9,2.24,11.549,3.32a21.852,21.852,0,0,0-5.074-3.486.963.963,0,0,1-.591-.932c.065-1.1,1.85-1.906,11.232-5.1a64.88,64.88,0,0,0,7.24-2.695,5.954,5.954,0,0,0,2.411-2.856,4.119,4.119,0,0,1,.308-.61,1.753,1.753,0,0,1,1.568-.728,11.553,11.553,0,0,1,3.549.957c.51.192,1.058.4,1.517.537-.844-.781-2.373-1.957-3.675-2.958-3.082-2.37-6.918-5.321-8.931-7.976-.762-1.005-1.5-2.774-2.97-6.3-.59-1.413-1.293-3.1-2.155-5.11-2.01-4.691-6.744-7.539-8.289-7.539a.446.446,0,0,0-.162.019c-2.707,1.719-5.033,2.557-7.1,2.557a7.136,7.136,0,0,1-4.938-2.067c-.184-.157-.349-.3-.5-.41a.963.963,0,0,0-.582-.158c-2.561,0-8.144,5.209-9.578,8.4-.282.627-.965,2.64-1.687,4.771a69.532,69.532,0,0,1-3.111,8.357,69.107,69.107,0,0,1-8.169,9.963,27.737,27.737,0,0,0-2.545,2.9,2.559,2.559,0,0,0,.043.288c.4-.126,1.39-.731,3.714-2.664l.639-.531.47.684A7.331,7.331,0,0,0,344.177,416c2.69,1.256,19.088,6.076,19.254,6.125l1.312.385-1.023.908a45.879,45.879,0,0,1-4.386,3.565A1.072,1.072,0,0,0,359.008,427.615ZM347.015,410.47a.8.8,0,0,1-.729-.468c-.25-.563.007-.847,1.432-2.424a30.6,30.6,0,0,0,2.773-3.363c.441-.693,1.17-2.1,2.014-3.724,3.428-6.605,4.777-8.8,6.006-8.8a1.008,1.008,0,0,1,.3.043c.625.187,1.927.574-.093,17.086l-.09.738-.739-.076a31.082,31.082,0,0,0-10.6.949l-.106.032-.165.01Zm11.215-16.91a62.177,62.177,0,0,0-4.379,7.629c-.861,1.659-1.605,3.091-2.082,3.841a29.962,29.962,0,0,1-2.8,3.421,34,34,0,0,1,8.322-.535C358,401.974,358.477,395.614,358.23,393.56Zm18.416,15.124-.1-.851c-.265-2.334-1.552-14.067-.859-15.8.1-.241.39-.974,1.09-.974.664,0,.954.6,1.234,1.189l.128.263c.051.1.156.323.3.635,2.554,5.37,4.306,8.581,5.2,9.544a23.913,23.913,0,0,0,3.646,2.793c1.756,1.182,2.286,1.538,2.07,2.245a.859.859,0,0,1-.891.6,2.557,2.557,0,0,1-.406-.039,28.567,28.567,0,0,0-4.711-.38,28.212,28.212,0,0,0-5.881.579Zm.343-15.073c-.055,2.326.39,7.933.974,13.233a31.5,31.5,0,0,1,5.4-.453c.927,0,1.845.039,2.746.119a22.209,22.209,0,0,1-3.561-2.784c-1.358-1.454-3.77-6.362-5.466-9.927Z" fill="#2b2b2b"/>
      </g>
      <path id="Trazado_184606" data-name="Trazado 184606" d="M374.064,423.18a.765.765,0,0,1-.321-.072l-16.878-7.9a.757.757,0,0,1,.642-1.372l16.879,7.9a.758.758,0,0,1-.322,1.444Z" fill="#2b2b2b"/>
      <path id="Trazado_184607" data-name="Trazado 184607" d="M367.808,419.607a.758.758,0,0,1-.328-1.441l9.835-4.721a.758.758,0,0,1,.656,1.367l-9.835,4.72A.755.755,0,0,1,367.808,419.607Z" fill="#2b2b2b"/>
      <path id="Trazado_184608" data-name="Trazado 184608" d="M396.147,411.644c-1.859-.668-7.713-3.451-7.962-3.569l.651-1.368c.06.028,6.035,2.868,7.823,3.512Z" fill="#2b2b2b"/>
      <path id="Trazado_184609" data-name="Trazado 184609" d="M340.824,415.186l-.814-1.279c1.56-.993,7.015-5.644,7.07-5.691l.984,1.153C347.836,409.563,342.473,414.136,340.824,415.186Z" fill="#2b2b2b"/>
    </g>
  </g>
</svg>
