<svg xmlns="http://www.w3.org/2000/svg" width="63.27" height="66.766" viewBox="0 0 63.27 66.766">
  <g id="Grupo_2419" data-name="Grupo 2419" transform="translate(-644.816 -340.833)">
    <g id="Grupo_2402" data-name="Grupo 2402" transform="translate(644.816 380.607)">
      <g id="Grupo_2400" data-name="Grupo 2400">
        <path id="Trazado_184712" data-name="Trazado 184712" d="M690.888,396.44a.831.831,0,0,1-.334-1.591c8.891-3.889,14.866-11.284,15.793-19.453H646.556c.926,8.162,6.895,15.555,15.773,19.445a.83.83,0,0,1-.666,1.521c-9.768-4.279-16.223-12.609-16.846-21.738a.831.831,0,0,1,.829-.887h61.609a.83.83,0,0,1,.828.887c-.621,9.136-7.083,17.469-16.864,21.746A.839.839,0,0,1,690.888,396.44Z" transform="translate(-644.816 -373.737)" fill="#393753"/>
      </g>
      <g id="Grupo_2401" data-name="Grupo 2401" transform="translate(14.887 21.046)">
        <path id="Trazado_184713" data-name="Trazado 184713" d="M689.8,397.094H657.961a.829.829,0,0,1-.809-1.018l1-4.286a.832.832,0,0,1,.809-.642h29.829a.831.831,0,0,1,.809.642l1,4.286a.829.829,0,0,1-.809,1.018Zm-30.789-1.66h29.742l-.615-2.625H659.623Z" transform="translate(-657.131 -391.148)" fill="#393753"/>
      </g>
    </g>
    <g id="Grupo_2418" data-name="Grupo 2418" transform="translate(650.255 340.833)">
      <g id="Grupo_2409" data-name="Grupo 2409" transform="translate(12.43)">
        <g id="Grupo_2403" data-name="Grupo 2403">
          <path id="Trazado_184714" data-name="Trazado 184714" d="M673.472,378.558a.816.816,0,0,1-.234-.034c-.557-.164-13.64-4.149-13.64-14.608,0-10.2,12.761-22.347,13.3-22.858a.833.833,0,0,1,1.139,0c.544.511,13.306,12.657,13.306,22.858,0,10.46-13.084,14.444-13.641,14.608A.81.81,0,0,1,673.472,378.558Zm0-35.734c-2.482,2.488-12.215,12.776-12.215,21.092,0,8.5,10.5,12.366,12.215,12.94,1.719-.574,12.216-4.436,12.216-12.94C685.688,355.6,675.954,345.312,673.472,342.824Z" transform="translate(-659.598 -340.833)" fill="#393753"/>
        </g>
        <g id="Grupo_2404" data-name="Grupo 2404" transform="translate(13.045 9.126)">
          <path id="Trazado_184715" data-name="Trazado 184715" d="M671.219,376.982a.83.83,0,0,1-.829-.83V349.212a.83.83,0,0,1,1.66,0v26.939A.831.831,0,0,1,671.219,376.982Z" transform="translate(-670.39 -348.383)" fill="#393753"/>
        </g>
        <g id="Grupo_2405" data-name="Grupo 2405" transform="translate(7.882 23.344)">
          <path id="Trazado_184716" data-name="Trazado 184716" d="M672,366.86a.821.821,0,0,1-.586-.243l-5.056-5.055a.83.83,0,1,1,1.174-1.173l5.056,5.054A.83.83,0,0,1,672,366.86Z" transform="translate(-666.119 -360.145)" fill="#393753"/>
        </g>
        <g id="Grupo_2406" data-name="Grupo 2406" transform="translate(9.69 15.241)">
          <path id="Trazado_184717" data-name="Trazado 184717" d="M671.692,358.351a.826.826,0,0,1-.586-.243l-3.249-3.249a.83.83,0,0,1,1.174-1.173l3.249,3.248a.83.83,0,0,1-.588,1.417Z" transform="translate(-667.614 -353.441)" fill="#393753"/>
        </g>
        <g id="Grupo_2407" data-name="Grupo 2407" transform="translate(13.151 23.343)">
          <path id="Trazado_184718" data-name="Trazado 184718" d="M671.307,366.86a.818.818,0,0,1-.586-.243.828.828,0,0,1,0-1.174l5.055-5.054a.829.829,0,0,1,1.174,1.173l-5.056,5.055A.818.818,0,0,1,671.307,366.86Z" transform="translate(-670.477 -360.144)" fill="#393753"/>
        </g>
        <g id="Grupo_2408" data-name="Grupo 2408" transform="translate(13.151 15.241)">
          <path id="Trazado_184719" data-name="Trazado 184719" d="M671.307,358.351a.83.83,0,0,1-.586-1.417l3.248-3.248a.829.829,0,0,1,1.174,1.173l-3.249,3.249A.823.823,0,0,1,671.307,358.351Z" transform="translate(-670.477 -353.441)" fill="#393753"/>
        </g>
      </g>
      <g id="Grupo_2412" data-name="Grupo 2412" transform="translate(31.895 9.256)">
        <g id="Grupo_2410" data-name="Grupo 2410">
          <path id="Trazado_184720" data-name="Trazado 184720" d="M683.386,375.622a22.605,22.605,0,0,1-7.144-1.238.83.83,0,0,1,.577-1.557c.1.04,10.2,3.673,14.785-2.451,4.1-5.482,2.823-17.006,2.386-20.123a48.892,48.892,0,0,0-12.882,3.683.83.83,0,0,1-.72-1.5,50.875,50.875,0,0,1,14.206-3.944.836.836,0,0,1,.913.683c.109.62,2.6,15.277-2.572,22.191C690.431,374.719,686.691,375.621,683.386,375.622Z" transform="translate(-675.701 -348.49)" fill="#393753"/>
        </g>
        <g id="Grupo_2411" data-name="Grupo 2411" transform="translate(6.675 6.772)">
          <path id="Trazado_184721" data-name="Trazado 184721" d="M682.052,364.338a.829.829,0,0,1-.664-1.326l6.419-8.585a.829.829,0,1,1,1.328.994l-6.417,8.585A.826.826,0,0,1,682.052,364.338Z" transform="translate(-681.223 -354.092)" fill="#393753"/>
        </g>
      </g>
      <g id="Grupo_2415" data-name="Grupo 2415" transform="translate(0 9.256)">
        <g id="Grupo_2413" data-name="Grupo 2413">
          <path id="Trazado_184722" data-name="Trazado 184722" d="M662.128,375.622c-3.3,0-7.044-.9-9.547-4.253-5.17-6.914-2.681-21.571-2.572-22.191a.83.83,0,0,1,.913-.683,50.861,50.861,0,0,1,14.2,3.944.83.83,0,1,1-.719,1.5,48.858,48.858,0,0,0-12.882-3.683c-.438,3.116-1.712,14.641,2.385,20.123,4.58,6.124,14.683,2.49,14.786,2.451a.83.83,0,0,1,.575,1.557A22.6,22.6,0,0,1,662.128,375.622Z" transform="translate(-649.315 -348.49)" fill="#393753"/>
        </g>
        <g id="Grupo_2414" data-name="Grupo 2414" transform="translate(5.744 6.772)">
          <path id="Trazado_184723" data-name="Trazado 184723" d="M661.316,364.338a.822.822,0,0,1-.665-.332l-6.419-8.585a.83.83,0,0,1,1.33-.994l6.417,8.585a.828.828,0,0,1-.664,1.326Z" transform="translate(-654.067 -354.092)" fill="#393753"/>
        </g>
      </g>
      <g id="Grupo_2416" data-name="Grupo 2416" transform="translate(6.915 24.721)">
        <path id="Trazado_184724" data-name="Trazado 184724" d="M661.637,363.7a.839.839,0,0,1-.109-.007l-5.77-.753a.828.828,0,0,1-.716-.93.819.819,0,0,1,.93-.716l5.771.753a.83.83,0,0,1-.106,1.652Z" transform="translate(-655.036 -361.284)" fill="#393753"/>
      </g>
      <g id="Grupo_2417" data-name="Grupo 2417" transform="translate(38.274 24.722)">
        <path id="Trazado_184725" data-name="Trazado 184725" d="M681.807,363.7a.83.83,0,0,1-.106-1.652l5.771-.753a.83.83,0,1,1,.214,1.645l-5.769.753A.835.835,0,0,1,681.807,363.7Z" transform="translate(-680.978 -361.285)" fill="#393753"/>
      </g>
    </g>
  </g>
</svg>
