<svg xmlns="http://www.w3.org/2000/svg" width="48.079" height="45.222" viewBox="0 0 48.079 45.222">
  <g id="Grupo_2363" data-name="Grupo 2363" transform="translate(-1059.71 -1308.998)">
    <g id="Grupo_2356" data-name="Grupo 2356" transform="translate(1059.71 1325.168)">
      <path id="Trazado_184661" data-name="Trazado 184661" d="M5.231,0a.907.907,0,0,0-.709.337,37.456,37.456,0,0,0-3.89,6.3c-1.782,3.668-3.323,8.42-1.955,12.77a13.865,13.865,0,0,0,6.577,8.167c2.805,1.5,5.914,1.774,8.236.448a9.29,9.29,0,0,0,4.4-4.86c.8-2.292.537-5.239-1.4-8.9-1.518-2.859-4.02-5.009-6.159-7.1S6.458,3.108,6.113.759A.9.9,0,0,0,5.231,0M4.883,2.894A17.057,17.057,0,0,0,9.064,8.435c2.188,2.139,4.526,4.2,5.833,6.661,1.79,3.373,1.9,5.745,1.3,7.5a7.513,7.513,0,0,1-3.6,3.9c-1.6.916-4.093.809-6.485-.471A12.1,12.1,0,0,1,.387,18.887c-1.138-3.622.172-8,1.859-11.475A34.487,34.487,0,0,1,4.883,2.894" transform="translate(1.847)" fill="#989db8"/>
    </g>
    <g id="Grupo_2357" data-name="Grupo 2357" transform="translate(1067.499 1340.03)">
      <path id="Trazado_184662" data-name="Trazado 184662" d="M.649,0a.891.891,0,0,0-.87.847A12.48,12.48,0,0,0,3.635,9.842a11.693,11.693,0,0,0,9.509,3.683.885.885,0,1,0-.2-1.759h0A9.91,9.91,0,0,1,4.915,8.6,10.876,10.876,0,0,1,1.573.92.89.89,0,0,0,.714,0H.649Z" transform="translate(0.229)" fill="#989db8"/>
    </g>
    <g id="Grupo_2358" data-name="Grupo 2358" transform="translate(1071.727 1308.998)">
      <path id="Trazado_184663" data-name="Trazado 184663" d="M8.869,0A13.7,13.7,0,0,0,1.376,1.928C-1.337,3.58-3.131,6.109-3.131,8.757a9.151,9.151,0,0,0,2.054,6.2C.529,16.786,3.239,18.04,7.409,18.2c3.262.126,6.4-.943,9.294-1.732s5.492-1.28,7.715-.4a.9.9,0,0,0,1.165-.494.891.891,0,0,0,0-.659,37.5,37.5,0,0,0-3.572-6.485c-2.315-3.361-5.7-7.059-10.2-8.064A15.65,15.65,0,0,0,8.869,0m-.05,1.771a13.575,13.575,0,0,1,2.6.326c3.741.835,6.918,4.147,9.11,7.332a34.377,34.377,0,0,1,2.637,4.522,17.283,17.283,0,0,0-6.941.812c-2.966.809-5.937,1.778-8.742,1.667C3.633,16.281,1.5,15.2.276,13.8a7.448,7.448,0,0,1-1.614-5.04c0-1.832,1.338-3.913,3.652-5.323a11.886,11.886,0,0,1,6.5-1.659" transform="translate(3.131 0.001)" fill="#989db8"/>
    </g>
    <g id="Grupo_2359" data-name="Grupo 2359" transform="translate(1068.423 1315.81)">
      <path id="Trazado_184664" data-name="Trazado 184664" d="M7.85.028A14.751,14.751,0,0,0,5.278.449,11.61,11.61,0,0,0-2.7,6.754a.883.883,0,0,0,.464,1.165.9.9,0,0,0,1.18-.46,9.847,9.847,0,0,1,6.784-5.3,11.154,11.154,0,0,1,8.389.973.906.906,0,0,0,1.238-.276.877.877,0,0,0-.28-1.219A12.015,12.015,0,0,0,7.85.028" transform="translate(2.771 0.01)" fill="#989db8"/>
    </g>
    <g id="Grupo_2360" data-name="Grupo 2360" transform="translate(1083.542 1330.934)">
      <path id="Trazado_184665" data-name="Trazado 184665" d="M11.7,0a7.771,7.771,0,0,0-1.771.13C7.525.6,5.076,2.3,2.849,5.788,1.105,8.517.473,11.74-.282,14.614s-1.629,5.35-3.511,6.818a.882.882,0,0,0-.146,1.246A.887.887,0,0,0-3.363,23a38.187,38.187,0,0,0,7.462.18c4.1-.3,9.029-1.361,12.153-4.706a13.789,13.789,0,0,0,3.859-9.723C20.019,5.6,18.7,2.8,16.382,1.476A10.371,10.371,0,0,0,11.7,0m-1.426,1.87a7.626,7.626,0,0,1,5.212,1.134c1.6.916,2.752,3.1,2.828,5.795a12.005,12.005,0,0,1-3.384,8.47c-2.6,2.786-7.086,3.855-10.969,4.147a36.091,36.091,0,0,1-5.274,0A16.9,16.9,0,0,0,1.45,15.063c.778-2.943,1.414-5.979,2.913-8.328C6.421,3.511,8.441,2.228,10.277,1.875Z" transform="translate(4.131 0.002)" fill="#989db8"/>
    </g>
    <g id="Grupo_2361" data-name="Grupo 2361" transform="translate(1095.736 1326.876)">
      <path id="Trazado_184666" data-name="Trazado 184666" d="M3.7,0A.919.919,0,0,0,3.16.172.88.88,0,0,0,2.976,1.41,9.685,9.685,0,0,1,4.218,9.876,10.945,10.945,0,0,1-.829,16.583a.881.881,0,0,0-.376,1.2A.9.9,0,0,0,0,18.151H0a12.559,12.559,0,0,0,5.944-7.8A11.425,11.425,0,0,0,4.417.36.914.914,0,0,0,3.7,0" transform="translate(1.308)" fill="#989db8"/>
    </g>
  </g>
</svg>
