<svg xmlns="http://www.w3.org/2000/svg" width="169" height="169" viewBox="0 0 169 169">
  <g id="Grupo_2251" data-name="Grupo 2251" transform="translate(-59.549 -314.416)">
    <circle id="Ellipse_7" data-name="Ellipse 7" cx="84.5" cy="84.5" r="84.5" transform="translate(59.549 314.416)" fill="#f4f3ee"/>
    <g id="Group_111" data-name="Group 111">
      <path id="Path_56" data-name="Path 56" d="M130.413,387.08l-1.537-.179a34.255,34.255,0,0,1,2.382-9.537l.357-.778.738.433a33.476,33.476,0,0,1,6.944,5.838l-1.139,1.048a34.365,34.365,0,0,0-5.828-5.061A36.054,36.054,0,0,0,130.413,387.08Z" fill="#2b2b2b"/>
      <path id="Path_57" data-name="Path 57" d="M157.061,387.471a46.211,46.211,0,0,0-1.894-8.587,34.768,34.768,0,0,0-5.747,5.214l-1.156-1.029a32.749,32.749,0,0,1,6.91-6.047l.787-.469.331.855a44.944,44.944,0,0,1,2.306,9.881Z" fill="#2b2b2b"/>
      <path id="Path_58" data-name="Path 58" d="M138.262,419.372a23.214,23.214,0,0,1-14.119-4.38c-8.506-6.454-11.126-19.289-11.234-19.831l-.142-.724.716-.177a27.734,27.734,0,0,1,7.87-.534l-.106,1.544a28.021,28.021,0,0,0-6.646.343c.694,2.826,3.581,12.914,10.479,18.147,7.985,6.054,18.612,3.518,18.718,3.493l.374,1.5A26.628,26.628,0,0,1,138.262,419.372Z" fill="#2b2b2b"/>
      <path id="Path_59" data-name="Path 59" d="M150.617,419.288a30.379,30.379,0,0,1-6.6-.686l.363-1.505c.115.027,11.623,2.706,19.6-3.34,6.9-5.232,9.783-15.319,10.48-18.146a28.005,28.005,0,0,0-7.874-.229l-.179-1.537a28.113,28.113,0,0,1,9.171.413l.716.177-.142.724c-.108.543-2.726,13.377-11.234,19.83C160.337,418.46,154.834,419.288,150.617,419.288Z" fill="#2b2b2b"/>
      <path id="Path_60" data-name="Path 60" d="M142.927,418.4c-.486-.086-11.976-2.219-18.1-11.8-6.085-9.519-4.815-22.615-4.757-23.168l.086-.828.823.146a29.264,29.264,0,0,1,15.823,9.255l-1.186,1a28.04,28.04,0,0,0-14.064-8.534c-.17,3.076-.334,13.607,4.584,21.3,5.759,9.012,16.951,11.087,17.062,11.108Z" fill="#2b2b2b"/>
      <path id="Path_61" data-name="Path 61" d="M145.451,418.33l-.271-1.525c.107-.019,10.854-2.039,16.6-11.032,4.918-7.694,4.754-18.225,4.585-21.3-2.458.626-9.744,2.932-14.616,9.219l-1.224-.948c6.284-8.107,16-9.916,16.412-9.988l.824-.146.085.828c.058.553,1.326,13.649-4.758,23.169C156.966,416.186,145.918,418.246,145.451,418.33Z" fill="#2b2b2b"/>
      <path id="Path_62" data-name="Path 62" d="M144,418.838l-.6-.683c-.334-.378-8.168-9.407-8.34-21.366s7.374-21.633,7.695-22.038l.587-.741.612.721c.333.393,8.159,9.763,8.33,21.715s-7.383,21.3-7.705,21.689Zm-.617-42.321c-1.768,2.539-6.914,10.766-6.777,20.25s5.519,17.252,7.351,19.62c1.757-2.44,6.913-10.428,6.777-19.92s-5.508-17.483-7.351-19.95Z" fill="#2b2b2b"/>
    </g>
    <g id="Grupo_2250" data-name="Grupo 2250">
      <g id="Grupo_2249" data-name="Grupo 2249">
        <g id="Grupo_2248" data-name="Grupo 2248">
          <path id="Trazado_184541" data-name="Trazado 184541" d="M161.447,342a1.777,1.777,0,0,0,1.286,2.065c.926.315,1.847.124,2.133-.681.3-.843-.347-1.37-1.16-1.888-1.182-.754-2.674-1.5-2.044-3.356.553-1.592,2.033-1.9,3.529-1.392,1.447.494,2.489,1.7,1.966,3.3l-1.232-.419c.21-.808-.329-1.42-1.137-1.7-.827-.281-1.627-.126-1.887.61-.3.853.487,1.276,1.418,1.868,1.16.723,2.374,1.676,1.78,3.385-.516,1.485-2.147,1.983-3.755,1.447a2.944,2.944,0,0,1-2.128-3.658Z" fill="#161615"/>
          <path id="Trazado_184542" data-name="Trazado 184542" d="M172.469,339.675l1.138.628-2.133,3.867c-1.069,1.94-.928,3.145.464,3.913s2.479.24,3.549-1.7l2.132-3.867,1.138.627-2.133,3.867c-1.411,2.559-3.255,3.321-5.3,2.192s-2.4-3.093-.985-5.66Z" fill="#161615"/>
          <path id="Trazado_184543" data-name="Trazado 184543" d="M180.242,351.186l-1.972,2.434-1.011-.82,5.568-6.873,2.426,1.966a2.859,2.859,0,1,1-3.523,4.5Zm2.777-3.429-1.958,2.418,1.487,1.205a1.56,1.56,0,1,0,1.886-2.476Z" fill="#161615"/>
          <path id="Trazado_184544" data-name="Trazado 184544" d="M187.508,357.745l-2.341,2.078-.863-.972,6.612-5.868,2.071,2.335a2.857,2.857,0,1,1-4.208,3.859Zm3.3-2.926-2.326,2.064,1.27,1.432a1.56,1.56,0,1,0,2.264-2.135Z" fill="#161615"/>
          <path id="Trazado_184545" data-name="Trazado 184545" d="M199.938,364.631c1.246,2.044.537,4.439-1.7,5.8s-4.7.906-5.948-1.137-.542-4.447,1.705-5.818S198.692,362.589,199.938,364.631Zm-5.267-.041c-1.616.987-2.139,2.647-1.289,4.041s2.561,1.68,4.177.695,2.143-2.623,1.285-4.027S196.27,363.615,194.671,364.59Z" fill="#161615"/>
          <path id="Trazado_184546" data-name="Trazado 184546" d="M195.777,375.6l8.25-3.169,1.13,2.94a2.745,2.745,0,0,1-1.569,3.833,2.717,2.717,0,0,1-3.159-.713l-2.308,3.214-.558-1.456,2.2-3-.6-1.562-2.921,1.123Zm7.5-1.489-2.9,1.114.7,1.815a1.559,1.559,0,1,0,2.869-1.2Z" fill="#161615"/>
          <path id="Trazado_184547" data-name="Trazado 184547" d="M199.348,386.713l7.385-1.52-.53-2.567,1.274-.262,1.319,6.407-1.272.262-.53-2.567-7.384,1.521Z" fill="#161615"/>
          <path id="Trazado_184548" data-name="Trazado 184548" d="M200.415,393.712l8.818-.674.1,1.3-8.818.676Z" fill="#161615"/>
          <path id="Trazado_184549" data-name="Trazado 184549" d="M200.749,398.363l8.828.52-.077,1.3-6.87,4.274,6.6.39-.077,1.3-8.434-.5-.011.01v-.01l-.383-.024.076-1.3,6.86-4.275-6.585-.388Z" fill="#161615"/>
          <path id="Trazado_184550" data-name="Trazado 184550" d="M203.9,413.419l-1.158,4.556c-.227-.036-.444-.069-.635-.118a4.171,4.171,0,1,1,5.381-2.936A3.9,3.9,0,0,1,204.094,418l.346-1.36a2.717,2.717,0,0,0,1.77-2.028,3.176,3.176,0,0,0-6.13-1.547,2.745,2.745,0,0,0,1.778,3.349l.837-3.3Z" fill="#161615"/>
          <path id="Trazado_184551" data-name="Trazado 184551" d="M192.654,427.739l.652-1.124,3.248,1.882,5.952-.13-.75,1.295-4.541-.024,2.282,3.92-.756,1.3-2.839-5.242Z" fill="#161615"/>
          <path id="Trazado_184552" data-name="Trazado 184552" d="M193.952,441.136c-1.548,1.823-4.043,1.9-6.04.2s-2.33-4.178-.781-6,4.05-1.907,6.054-.2S195.5,439.315,193.952,441.136Zm-1.609-5.01c-1.442-1.225-3.181-1.2-4.238.041s-.792,2.956.649,4.182,3.159,1.212,4.224-.04S193.769,437.337,192.343,436.126Z" fill="#161615"/>
          <path id="Trazado_184553" data-name="Trazado 184553" d="M187.819,447.506l-1.014.815-2.764-3.45c-1.386-1.729-2.555-2.058-3.8-1.062s-1.167,2.2.217,3.93l2.765,3.45-1.015.812-2.763-3.449c-1.829-2.28-1.83-4.278,0-5.742s3.776-1.04,5.61,1.248Z" fill="#161615"/>
          <path id="Trazado_184554" data-name="Trazado 184554" d="M173.853,446.947l4.242,7.763-2.768,1.512a2.874,2.874,0,0,1-3.723-4.275l-3.5-1.862,1.37-.749,3.265,1.787,1.47-.8-1.5-2.748Zm2.476,7.246-1.492-2.732-1.708.933a1.56,1.56,0,1,0,1.574,2.686Z" fill="#161615"/>
          <path id="Trazado_184555" data-name="Trazado 184555" d="M160.7,453l1.977,8.619-1.268.291-3.8-3.824-1.766,5.1-1.268.291-1.976-8.62,1.267-.29,1.421,6.2,1.458-4.069,1.025-.236,3.085,3.029-1.421-6.2Z" fill="#161615"/>
          <path id="Trazado_184556" data-name="Trazado 184556" d="M148.493,462.766l-.122-2.463-3.865.191-.063-1.3,3.865-.191-.121-2.472-4.052.2-.064-1.3,5.351-.262.433,8.832-5.258.258-.063-1.3Z" fill="#161615"/>
          <path id="Trazado_184557" data-name="Trazado 184557" d="M140.981,455.4l-1.055,8.779-1.291-.155-3.849-7.116-.79,6.559-1.291-.155,1.008-8.388-.009-.011h.011l.046-.382,1.291.155,3.851,7.105.787-6.547Z" fill="#161615"/>
          <path id="Trazado_184558" data-name="Trazado 184558" d="M128.315,453.142l-2.165,7.218,2.509.753-.373,1.244-6.263-1.878.374-1.246,2.509.754,2.165-7.219Z" fill="#161615"/>
          <path id="Trazado_184559" data-name="Trazado 184559" d="M115.479,457.66l-1.247-.621.787-9.476,1.247.62-.2,2.408,3.445,1.712,1.8-1.612,1.247.62Zm.474-5.72-.32,3.846,2.871-2.579Z" fill="#161615"/>
          <path id="Trazado_184560" data-name="Trazado 184560" d="M108.345,442.812l4.321,3.166-5.224,7.132-1.049-.769,4.456-6.083-3.272-2.4Z" fill="#161615"/>
          <path id="Trazado_184561" data-name="Trazado 184561" d="M102.31,437.046l-6.58,5.9-.867-.968,6.58-5.9Z" fill="#161615"/>
          <path id="Trazado_184562" data-name="Trazado 184562" d="M99.194,433.579l-7.362,4.9-.72-1.083,2.231-4.909-5.4.155-.72-1.083,7.36-4.9.721,1.083-5.291,3.521,4.321-.077.582.875-1.739,3.955,5.291-3.52Z" fill="#161615"/>
          <path id="Trazado_184563" data-name="Trazado 184563" d="M93.124,423.907l-8.182,3.343-.491-1.2,3.157-4.369-5.318-.916-.491-1.2,8.182-3.344.492,1.2-5.882,2.4,4.25.78.4.971-2.489,3.534,5.882-2.4Z" fill="#161615"/>
          <path id="Trazado_184564" data-name="Trazado 184564" d="M80.442,414.815l-.248-1.277,4.338-.842c2.173-.422,3.009-1.305,2.706-2.868s-1.407-2.056-3.581-1.633l-4.338.842-.248-1.276,4.339-.843c2.868-.557,4.636.37,5.084,2.667s-.835,3.828-3.714,4.387Z" fill="#161615"/>
          <path id="Trazado_184565" data-name="Trazado 184565" d="M87.4,402.743l-8.843.045-.007-1.3,6.581-4.705-6.606.034-.006-1.3,8.448-.044.01-.01v.01l.385,0,.006,1.3L80.8,401.476l6.6-.034Z" fill="#161615"/>
          <path id="Trazado_184566" data-name="Trazado 184566" d="M80.471,389.728l2.434.4.625-3.819,1.283.21-.625,3.819,2.443.4.655-4.005,1.284.211-.865,5.287L78.977,390.8l.851-5.194,1.284.209Z" fill="#161615"/>
          <path id="Trazado_184567" data-name="Trazado 184567" d="M88.812,376.884a1.776,1.776,0,0,0,2.157-1.118c.387-.9.269-1.831-.51-2.178-.816-.363-1.392.237-1.972,1-.845,1.119-1.71,2.546-3.5,1.772-1.542-.676-1.734-2.174-1.109-3.624.606-1.4,1.883-2.346,3.438-1.7l-.515,1.192a1.428,1.428,0,0,0-1.777,1c-.346.8-.254,1.611.458,1.928.826.368,1.309-.385,1.972-1.265.813-1.1,1.857-2.233,3.513-1.507,1.438.631,1.806,2.3,1.145,3.854a2.944,2.944,0,0,1-3.812,1.833Z" fill="#161615"/>
          <path id="Trazado_184568" data-name="Trazado 184568" d="M96.77,367.5l-.7,1.092-3.153-2.037L86.96,366.4l.813-1.257,4.534.243-2.091-4.025.819-1.266,2.583,5.37Z" fill="#161615"/>
          <path id="Trazado_184569" data-name="Trazado 184569" d="M98.795,360.264a1.777,1.777,0,0,0,2.4-.36c.656-.724.847-1.646.222-2.225-.654-.609-1.393-.227-2.191.312-1.161.785-2.441,1.855-3.888.543-1.24-1.139-.936-2.619.124-3.789,1.027-1.131,2.541-1.609,3.8-.494l-.872.963a1.43,1.43,0,0,0-2.006.369c-.586.648-.761,1.444-.19,1.975.663.615,1.364.058,2.275-.561,1.125-.775,2.479-1.51,3.812-.288,1.155,1.062.966,2.756-.165,4.017a2.943,2.943,0,0,1-4.2.5Z" fill="#161615"/>
          <path id="Trazado_184570" data-name="Trazado 184570" d="M108.137,354.933l-4.7-5.894-2.048,1.635-.81-1.015,5.112-4.08.81,1.016-2.047,1.635,4.7,5.89Z" fill="#161615"/>
          <path id="Trazado_184571" data-name="Trazado 184571" d="M111.109,343.647l1.221,2.139,3.36-1.916.643,1.128-3.358,1.918,1.227,2.149,3.521-2.011.644,1.129-4.65,2.654-4.381-7.674,4.569-2.608.644,1.129Z" fill="#161615"/>
          <path id="Trazado_184572" data-name="Trazado 184572" d="M121.142,346.777l-2.969-8.327,1.225-.437,4.221,3.355,1.158-5.271,1.224-.436,2.968,8.326-1.225.436-2.133-5.985-.973,4.211-.989.352-3.416-2.646,2.133,5.985Z" fill="#161615"/>
        </g>
        <circle id="Elipse_12" data-name="Elipse 12" cx="2.91" cy="2.91" r="2.91" transform="translate(141.663 333.572)" fill="#161615"/>
      </g>
    </g>
  </g>
</svg>
