<svg xmlns="http://www.w3.org/2000/svg" width="52.658" height="44.664" viewBox="0 0 52.658 44.664">
  <g id="Group_2292" data-name="Group 2292" transform="translate(-934 -901.334)">
    <g id="Group_45" data-name="Group 45" transform="translate(81 -308.667)">
      <g id="Group_22" data-name="Group 22" transform="translate(853 1210.001)">
        <path id="Path_16" data-name="Path 16" d="M17.534.037Q19,.2,19,1.252a4.177,4.177,0,0,1-.612,1.623q-.612,1.134-.857,1.539V44.621H10.267l-.082-.08L-14.475,7.982V39.838q.244.567.938,1.784a4.3,4.3,0,0,1,.694,1.782q0,.974-1.632,1.217h-3.837q-1.553-.244-1.552-1.217a4.447,4.447,0,0,1,.653-1.782q.651-1.216.9-1.784V5.307a15.209,15.209,0,0,0-.816-1.7,8.083,8.083,0,0,1-.981-2.512A.906.906,0,0,1-19.619.2a2.976,2.976,0,0,1,1.307-.241H-7.453l17.637,26.1L13.7,31.327V4.82A5.762,5.762,0,0,0,12.88,3.2a6.677,6.677,0,0,1-.818-2.108A.894.894,0,0,1,12.594.2a2.625,2.625,0,0,1,1.1-.241h3.837Z" transform="translate(20.109 0.043)" fill="#004229"/>
      </g>
      <g id="Group_44" data-name="Group 44" transform="translate(-135.105)">
        <path id="Path_22" data-name="Path 22" d="M0,0V.492H1.2V3.914h.5V.492H2.9V0Z" transform="translate(1030.6 1210.001)" fill="#004229"/>
        <path id="Path_23" data-name="Path 23" d="M1.475,0,.139,2.123-1.192,0h-.5V3.914h.5V.949L-.06,2.712h.4L1.475.949V3.914h.5V0Z" transform="translate(1035.831 1210.001)" fill="#004229"/>
        <g id="Group_34" data-name="Group 34" transform="translate(1033.336 1247.209)">
          <path id="Path_28" data-name="Path 28" d="M1.73,3.435A3.7,3.7,0,0,0,5.444-.252,3.7,3.7,0,0,0,1.73-3.94,3.7,3.7,0,0,0-1.984-.252,3.7,3.7,0,0,0,1.73,3.435" transform="translate(1.984 3.94)" fill="#009252"/>
        </g>
      </g>
    </g>
  </g>
</svg>
