<svg xmlns="http://www.w3.org/2000/svg" width="122.52" height="103.92" viewBox="0 0 122.52 103.92">
  <g id="Grupo_2269" data-name="Grupo 2269" transform="translate(-853 -1210.001)">
    <g id="Grupo_22" data-name="Grupo 22" transform="translate(853 1210.001)">
      <path id="Trazado_16" data-name="Trazado 16" d="M67.474.144q3.417.379,3.419,2.827a9.719,9.719,0,0,1-1.424,3.776q-1.424,2.639-1.995,3.58v93.55H50.567l-.192-.187L-7,18.629V92.749q.568,1.32,2.182,4.151A10,10,0,0,1-3.2,101.046q0,2.267-3.8,2.831h-8.929q-3.613-.568-3.611-2.831a10.348,10.348,0,0,1,1.52-4.146q1.516-2.829,2.091-4.151V12.4a35.387,35.387,0,0,0-1.9-3.963q-2.28-4.527-2.282-5.845A2.107,2.107,0,0,1-18.968.519a6.924,6.924,0,0,1,3.04-.562H9.338L50.375,60.685l8.171,12.261V11.272a13.407,13.407,0,0,0-1.9-3.772q-1.9-3.77-1.9-4.9A2.08,2.08,0,0,1,55.98.519a6.108,6.108,0,0,1,2.565-.562h8.929Z" transform="translate(20.109 0.043)" fill="#f6f6f2"/>
    </g>
    <g id="Grupo_44" data-name="Grupo 44" transform="translate(951.871 1210.001)">
      <path id="Trazado_22" data-name="Trazado 22" d="M0,0V1.145H2.8V9.107H3.95V1.145h2.8V0Z" fill="#f6f6f2"/>
      <path id="Trazado_23" data-name="Trazado 23" d="M5.677,0,2.568,4.939-.529,0H-1.692V9.107H-.529v-6.9l2.635,4.1h.936l2.635-4.1v6.9H6.845V0Z" transform="translate(9.927)" fill="#f6f6f2"/>
      <g id="Grupo_34" data-name="Grupo 34" transform="translate(6.367 86.572)">
        <path id="Trazado_28" data-name="Trazado 28" d="M6.657,13.22A8.61,8.61,0,0,0,15.3,4.64a8.641,8.641,0,0,0-17.282,0,8.61,8.61,0,0,0,8.641,8.58" transform="translate(1.984 3.94)" fill="#a2a4be"/>
      </g>
    </g>
  </g>
</svg>
