<svg xmlns="http://www.w3.org/2000/svg" xmlns:xlink="http://www.w3.org/1999/xlink" width="308.556" height="95.192" viewBox="0 0 308.556 95.192">
  <defs>
    <clipPath id="clip-path">
      <path id="Path_21" data-name="Path 21" d="M0,38.79H229.212V-30.183H0Z" transform="translate(0 30.183)" fill="#044229"/>
    </clipPath>
    <clipPath id="clip-path-2">
      <path id="Path_29" data-name="Path 29" d="M0,38.79H229.212V-30.183H0Z" transform="translate(0 30.183)" fill="none"/>
    </clipPath>
  </defs>
  <g id="Group_36" data-name="Group 36" transform="translate(40 30.183)">
    <g id="Group_27" data-name="Group 27" transform="translate(0 -30.183)" clip-path="url(#clip-path)">
      <g id="Group_22" data-name="Group 22" transform="translate(0 0.001)">
        <path id="Path_16" data-name="Path 16" d="M25.843.055q1.793.2,1.794,1.483A5.1,5.1,0,0,1,26.89,3.52Q26.142,4.9,25.843,5.4V54.481H16.972l-.1-.1-30.1-44.629V48.642q.3.692,1.145,2.178A5.245,5.245,0,0,1-11.238,53q0,1.189-1.993,1.485h-4.685q-1.9-.3-1.894-1.485a5.429,5.429,0,0,1,.8-2.175q.8-1.484,1.1-2.178V6.488a18.568,18.568,0,0,0-1-2.079,9.868,9.868,0,0,1-1.2-3.067,1.106,1.106,0,0,1,.6-1.09,3.633,3.633,0,0,1,1.6-.295H-4.659L16.872,31.819l4.287,6.433V5.894a7.034,7.034,0,0,0-1-1.979,8.15,8.15,0,0,1-1-2.573,1.091,1.091,0,0,1,.649-1.09,3.2,3.2,0,0,1,1.346-.295h4.685Z" transform="translate(20.109 0.043)" fill="#044229"/>
      </g>
      <g id="Group_23" data-name="Group 23" transform="translate(51.632 18.308)">
        <path id="Path_17" data-name="Path 17" d="M18.5,16.361a7.525,7.525,0,0,0,1.2,2.671A8.153,8.153,0,0,1,20.892,22a1.157,1.157,0,0,1-.8,1.188,4.124,4.124,0,0,1-1.4.3H6.041a3.56,3.56,0,0,1-1.4-.3A1.161,1.161,0,0,1,3.948,22a4.107,4.107,0,0,1,.7-1.881A13.746,13.746,0,0,1,.008,22.6a17.494,17.494,0,0,1-5.432.891A10.93,10.93,0,0,1-11.852,21.7,6.09,6.09,0,0,1-14.4,16.361V-3.33A4,4,0,0,1-12.3-6.895l2.194-1.385A63.992,63.992,0,0,0-4.226-11.94a1.9,1.9,0,0,1,1.2-.692c.265,0,.5.2.7.594a3.517,3.517,0,0,1,.3,1.584V-.263q-.2,5.145-.2,8.014a22.6,22.6,0,0,0,.848,7.027,3.278,3.278,0,0,0,3.339,2.475q2.89,0,4.186-4.751L6.041-7.19a1.207,1.207,0,0,1,.347-.793,2.229,2.229,0,0,1,.848-.594q8.374-3.363,8.971-3.661a2.661,2.661,0,0,1,1.2-.494q.9,0,.9,1.483l.4,27.509Z" transform="translate(14.395 12.731)" fill="#044229"/>
      </g>
      <g id="Group_24" data-name="Group 24" transform="translate(90.11 0.1)">
        <path id="Path_18" data-name="Path 18" d="M11.772,11.575H6.788V38.887a3.749,3.749,0,0,0,.448,1.881,11.483,11.483,0,0,0,1.2,1.682q.747.891.747,1.188,0,1.481-3.688,1.483-5.981,0-8.473-1.584T-5.472,37.8l.1-8.016V11.774H-9.16V8.31h3.786V.2a3.967,3.967,0,0,1,.548-2.029A4.3,4.3,0,0,1-3.28-3.367Q4.2-7.82,4.8-8.315a1.9,1.9,0,0,1,1.2-.692q.9,0,.9,2.178V8.31h5.082Z" transform="translate(9.16 9.007)" fill="#044229"/>
      </g>
      <g id="Group_25" data-name="Group 25" transform="translate(160.38 0.001)">
        <path id="Path_19" data-name="Path 19" d="M12.417.612a11.228,11.228,0,0,1,4.038,2.77,5.023,5.023,0,0,1,1.494,3.265,6.456,6.456,0,0,1-1.4,4.554,4.379,4.379,0,0,1-3.288,1.483,3.886,3.886,0,0,1-2.244-.642,1.917,1.917,0,0,1-.946-1.634q0-6.036-2.591-6.035-1.7,0-2.292,3.857a65.783,65.783,0,0,0-.6,9.8v4.154h7.376v3.464H4.691l.1,21.375a11.528,11.528,0,0,0,1.2,2.573,10.293,10.293,0,0,1,1.2,2.966,1.116,1.116,0,0,1-.647,1.04,3.455,3.455,0,0,1-1.645.347H-7.468a3.946,3.946,0,0,1-1.447-.3,1.085,1.085,0,0,1-.747-1.09,5.817,5.817,0,0,1,.848-2.374c.564-1.053.98-1.881,1.245-2.473l-.2-22.662q-.2-7.023-.2-11.974a14.6,14.6,0,0,1,3.339-9.4Q-1.289-.477,6.985-.476A13.67,13.67,0,0,1,12.417.612M7.084-.476h0Z" transform="translate(9.662 0.476)" fill="#044229"/>
      </g>
      <g id="Group_26" data-name="Group 26" transform="translate(184.252 20.386)">
        <path id="Path_20" data-name="Path 20" d="M22.7,0A1.142,1.142,0,0,1,24,1.287a1.052,1.052,0,0,1-.3.791,4.4,4.4,0,0,1-1.1.692,2.982,2.982,0,0,0-1.892,1.782l-.3.4L7.951,33.644q0,.891-2.242,4.7A26.24,26.24,0,0,1-.521,45.372a14.354,14.354,0,0,1-9.271,3.215,11.341,11.341,0,0,1-5.283-1.979,5.175,5.175,0,0,1-2.194-4.454,4.929,4.929,0,0,1,1.3-3.661,4.011,4.011,0,0,1,2.891-1.287,2.638,2.638,0,0,1,1.645.494,1.549,1.549,0,0,1,.649,1.287A4.67,4.67,0,0,0-9.542,42.3,3.7,3.7,0,0,0-6.8,43.639a6.772,6.772,0,0,0,5.233-2.573A10.489,10.489,0,0,0,.675,33.941L-11.585,8.016q-1.4-1.285-3.291-2.772-2.393-2.077-2.191-1.881a1.7,1.7,0,0,1-.6-1.186,1.781,1.781,0,0,1,.7-1.387A3.007,3.007,0,0,1-15.273.1V0H-4.41A32.928,32.928,0,0,1-.372.2Q1.174.4,1.173,1.385q0,.4-.848,1.337A6.573,6.573,0,0,0-.92,4.65l8.871,18.6L15.128,5.146a3.758,3.758,0,0,0-.249-1.584,3.52,3.52,0,0,0-.8-.989,1.451,1.451,0,0,1-.548-1.09A1.077,1.077,0,0,1,14.431.3a13.419,13.419,0,0,1,2.69-.2H22.6Z" transform="translate(17.666)" fill="#044229"/>
      </g>
    </g>
    <g id="Group_28" data-name="Group 28" transform="translate(216.804 -30.182)">
      <path id="Path_22" data-name="Path 22" d="M0,0V.6H1.467V4.778h.606V.6H3.54V0Z" fill="#004229"/>
    </g>
    <g id="Group_29" data-name="Group 29" transform="translate(221.125 -30.182)">
      <path id="Path_23" data-name="Path 23" d="M2.174,0,.543,2.591-1.082,0h-.61V4.778h.61V1.159L.3,3.311H.792L2.174,1.159v3.62h.612V0Z" transform="translate(1.692)" fill="#004229"/>
    </g>
    <g id="Group_35" data-name="Group 35" transform="translate(0 -30.183)" clip-path="url(#clip-path-2)">
      <g id="Group_30" data-name="Group 30" transform="translate(139.146 19.826)">
        <path id="Path_24" data-name="Path 24" d="M8.88,17.063a11.179,11.179,0,0,1-1.143-2.425V-11.2a3.256,3.256,0,0,0-.3-1.51c-.2-.379-.432-.569-.695-.569a1.928,1.928,0,0,0-1.193.663,64.2,64.2,0,0,1-5.859,3.5L-2.491-7.795a3.79,3.79,0,0,0-2.084,3.4v17.3l-.151,2.073a12.536,12.536,0,0,1-.992,1.89A9.167,9.167,0,0,0-6.91,19.8a1.039,1.039,0,0,0,.745,1.04,4.018,4.018,0,0,0,1.44.283H7.788c1.522,0,2.285-.439,2.285-1.323a7.781,7.781,0,0,0-1.193-2.74" transform="translate(6.91 13.277)" fill="#004229"/>
      </g>
      <g id="Group_31" data-name="Group 31" transform="translate(113.598 18.441)">
        <path id="Path_25" data-name="Path 25" d="M8.042,8.428l.3,13.9a6.816,6.816,0,0,0,1.193,2.76,8.379,8.379,0,0,1,1.191,2.859q0,1.477-2.283,1.478H-4.073a3.9,3.9,0,0,1-1.44-.295,1.153,1.153,0,0,1-.745-1.184,4.191,4.191,0,0,1,.546-1.773,15.642,15.642,0,0,1,.745-1.38l.893-1.776-.1-24.056c0-.59.4-1.049,1.191-1.38Q5.362-5.766,5.956-6.064a2.645,2.645,0,0,1,1.193-.494c.6,0,.893.462.893,1.38V-3.6" transform="translate(6.258 6.558)" fill="#004229"/>
      </g>
      <g id="Group_32" data-name="Group 32" transform="translate(133.554 1.808)">
        <path id="Path_26" data-name="Path 26" d="M0,4.224q4.713-7.51,10.171-7.511a8.315,8.315,0,0,1,5.457,2.093Q17.86.654,17.861,4.841A6.209,6.209,0,0,1,15.875,9.7a6.5,6.5,0,0,1-4.465,1.785,4,4,0,0,1-2.852-1.047A3.93,3.93,0,0,1,7.44,7.426q0-2.461-1.611-2.463-1.368,0-3.163,1.91" transform="translate(0 3.287)" fill="#004229"/>
      </g>
      <g id="Group_33" data-name="Group 33" transform="translate(123.52 5.536)">
        <path id="Path_27" data-name="Path 27" d="M8.922,2.543S-2.74,9.7-2.74,26.6l-4.2-2.585,4.378-11.485S1.982,1.9,6.1-1.979L7.729-1.8s.631.647.631.786.884.322.884.322" transform="translate(6.942 1.979)" fill="#004229"/>
      </g>
      <g id="Group_34" data-name="Group 34" transform="translate(220.145 45.422)">
        <path id="Path_28" data-name="Path 28" d="M2.55,5.063A4.517,4.517,0,0,0,7.083.562,4.517,4.517,0,0,0,2.55-3.94,4.517,4.517,0,0,0-1.984.562a4.517,4.517,0,0,0,4.534,4.5" transform="translate(1.984 3.94)" fill="#009252"/>
      </g>
    </g>
  </g>
  <g id="Group_54" data-name="Group 54" transform="translate(-379.001 -1109.299)">
    <g id="Group_47" data-name="Group 47" transform="translate(627.907 1186.271)">
      <path id="Path_31" data-name="Path 31" d="M2.643,7.441,4.885.33,7.126,7.441H9.014l3.2-10.11h-1.9L8.069,4.443,5.828-2.669H3.94L1.682,4.443-.559-2.669H-2.445L.739,7.441ZM13.372,2.37a4.943,4.943,0,1,0,9.875,0,4.942,4.942,0,1,0-9.875,0M18.325-.985a3.18,3.18,0,0,1,3.12,3.355,3.135,3.135,0,1,1-6.254,0A3.193,3.193,0,0,1,18.325-.985m12.749-1.8A4.1,4.1,0,0,0,27.147-.6V-2.669h-1.8V7.441h1.8V2.572C27.147.295,28.581-1,31.074-.985Zm3.9-4.1H33.157V7.441h1.819Zm0,14.324,10.628,0h1.819V-6.883H45.6v6.1a3.637,3.637,0,0,0-3.4-2c-2.918,0-4.837,2.054-4.837,5.155,0,3.122,1.919,5.176,4.837,5.176a3.618,3.618,0,0,0,3.4-1.987ZM39.182,2.37A3.116,3.116,0,0,1,42.4-.985a3.163,3.163,0,0,1,3.2,3.371,3.09,3.09,0,0,1-3.2,3.338,3.126,3.126,0,0,1-3.22-3.355" transform="translate(2.445 6.883)" fill="#044229"/>
    </g>
    <g id="Group_48" data-name="Group 48" transform="translate(581.888 1190.368)">
      <path id="Path_32" data-name="Path 32" d="M5.173.062H3.252L.2,7.747-2.847.062H-4.785l4.01,10.112-.3.826c-.387.978-.86,1.28-1.584,1.28h-.456v1.786h.624c2.023,0,2.493-.926,3.253-2.847ZM6.3,5.1a4.942,4.942,0,1,0,9.873,0A4.941,4.941,0,1,0,6.3,5.1M11.25,1.745A3.182,3.182,0,0,1,14.37,5.1a3.136,3.136,0,1,1-6.256,0A3.2,3.2,0,0,1,11.25,1.745m8.755,3.39V.062H18.187V5.135c0,3.118,1.617,5.155,4.179,5.155a3.015,3.015,0,0,0,2.882-2v1.886h1.819V.062H25.248V5.117c0,1.956-1.078,3.355-2.579,3.355-1.619,0-2.664-1.3-2.664-3.336M35-.057a4.1,4.1,0,0,0-3.927,2.189V.062h-1.8v10.11h1.8V5.3c0-2.277,1.434-3.573,3.927-3.557Z" transform="translate(4.785 0.057)" fill="#159252"/>
    </g>
    <g id="Group_49" data-name="Group 49" transform="translate(527.399 1186.272)">
      <path id="Path_33" data-name="Path 33" d="M3.668,4.806V9.879H5.487V4.806c0-1.938,1.078-3.355,2.562-3.355,1.636,0,2.681,1.315,2.681,3.355V9.879h1.819V4.806c0-3.118-1.717-5.155-4.433-5.155A3.514,3.514,0,0,0,4.863,1.857,3.816,3.816,0,0,0,1.308-.349a3.017,3.017,0,0,0-2.884,2V-.231H-3.393V9.879h1.817V4.824C-1.576,2.868-.5,1.451,1,1.451c1.619,0,2.664,1.315,2.664,3.355m11.1-8.073a1.025,1.025,0,0,0,1.095,1.095,1.016,1.016,0,0,0,1.059-1.095,1.01,1.01,0,0,0-1.059-1.076,1.02,1.02,0,0,0-1.095,1.076m2,3.036H14.952V9.879h1.819Zm0,10.11,9.482-5.074V9.879H28.07V4.806c0-3.118-1.615-5.155-4.177-5.155a3.013,3.013,0,0,0-2.884,2V-.231H19.192V9.879h1.817V4.824c0-1.956,1.08-3.374,2.581-3.374,1.617,0,2.664,1.315,2.664,3.355M38.615,9.879h1.819V-4.445H38.615v6.1a3.636,3.636,0,0,0-3.4-2c-2.918,0-4.837,2.054-4.837,5.155,0,3.12,1.919,5.174,4.837,5.174a3.616,3.616,0,0,0,3.4-1.985ZM32.19,4.808a3.118,3.118,0,0,1,3.222-3.357,3.165,3.165,0,0,1,3.2,3.374,3.09,3.09,0,0,1-3.2,3.338A3.126,3.126,0,0,1,32.19,4.808M42.584,8.885a1.021,1.021,0,0,0,.943,1.095,5.245,5.245,0,0,1-.606,1.349l-.287.556h1.011l.169-.285a4.907,4.907,0,0,0,.926-2.712,1,1,0,0,0-1.078-1.061.992.992,0,0,0-1.078,1.059" transform="translate(3.393 4.445)" fill="#044229"/>
    </g>
    <g id="Group_50" data-name="Group 50" transform="translate(480.688 1190.368)">
      <path id="Path_34" data-name="Path 34" d="M5.173.062H3.252L.2,7.747-2.847.062H-4.785l4.01,10.112-.3.826c-.387.978-.86,1.28-1.584,1.28h-.456v1.786h.624c2.023,0,2.493-.926,3.253-2.847ZM6.3,5.1a4.942,4.942,0,1,0,9.873,0A4.941,4.941,0,1,0,6.3,5.1M11.25,1.745A3.182,3.182,0,0,1,14.37,5.1a3.136,3.136,0,1,1-6.256,0A3.2,3.2,0,0,1,11.25,1.745m8.755,3.39V.062H18.187V5.135c0,3.118,1.617,5.155,4.179,5.155a3.015,3.015,0,0,0,2.882-2v1.886h1.819V.062H25.248V5.117c0,1.956-1.078,3.355-2.579,3.355-1.619,0-2.664-1.3-2.664-3.336M35-.057a4.1,4.1,0,0,0-3.927,2.189V.062h-1.8v10.11h1.8V5.3c0-2.277,1.434-3.573,3.927-3.557Z" transform="translate(4.785 0.057)" fill="#159252"/>
    </g>
    <g id="Group_51" data-name="Group 51" transform="translate(426.451 1186.271)">
      <path id="Path_35" data-name="Path 35" d="M.936,7.441V5.554A3.642,3.642,0,0,0,4.36,7.543c2.9,0,4.818-2.054,4.818-5.174,0-3.1-1.9-5.157-4.818-5.157a3.649,3.649,0,0,0-3.423,2v-6.1h-1.8V7.441ZM7.361,2.368A3.118,3.118,0,0,1,4.139,5.725a3.108,3.108,0,0,1-3.2-3.338A3.167,3.167,0,0,1,4.156-.985a3.1,3.1,0,0,1,3.2,3.355Zm3.817,0a4.943,4.943,0,1,0,9.875,0,4.942,4.942,0,1,0-9.875,0M16.131-.985A3.18,3.18,0,0,1,19.25,2.37a3.136,3.136,0,1,1-6.256,0A3.2,3.2,0,0,1,16.131-.985M31.41,7.441h1.819V-6.883H31.41v6.1a3.64,3.64,0,0,0-3.4-2c-2.918,0-4.837,2.054-4.837,5.155,0,3.122,1.919,5.176,4.837,5.176a3.618,3.618,0,0,0,3.4-1.987ZM24.986,2.37A3.117,3.117,0,0,1,28.208-.985a3.163,3.163,0,0,1,3.2,3.371,3.09,3.09,0,0,1-3.2,3.338A3.126,3.126,0,0,1,24.986,2.37m19.9-5.038H42.963L39.912,5.017,36.863-2.669H34.925l4.01,10.112-.3.826c-.387.978-.86,1.28-1.584,1.28h-.456v1.786h.624c2.021,0,2.493-.926,3.251-2.847Zm-.023,9.115a1.022,1.022,0,0,0,.943,1.1A5.365,5.365,0,0,1,45.2,8.892l-.285.556H45.92l.169-.287a4.891,4.891,0,0,0,.926-2.712,1,1,0,0,0-1.078-1.061.991.991,0,0,0-1.076,1.059" transform="translate(0.866 6.883)" fill="#044229"/>
    </g>
    <g id="Group_52" data-name="Group 52" transform="translate(379.001 1186.271)">
      <path id="Path_36" data-name="Path 36" d="M3.588,4.281,8.7-3.96H6.606L2.7,2.731-1.23-3.96H-3.319L1.786,4.281v6.083h1.8ZM8.435,5.293a4.943,4.943,0,1,0,9.875,0,4.942,4.942,0,1,0-9.875,0M13.39,1.938a3.182,3.182,0,0,1,3.12,3.355,3.136,3.136,0,1,1-6.256,0A3.2,3.2,0,0,1,13.39,1.938m8.753,3.39V.254H20.327V5.328c0,3.118,1.615,5.155,4.179,5.155a3.015,3.015,0,0,0,2.882-2v1.886h1.819V.254H27.388V5.309c0,1.956-1.078,3.355-2.579,3.355-1.619,0-2.666-1.3-2.666-3.336M37.136.136a4.1,4.1,0,0,0-3.927,2.189V.254h-1.8v10.11h1.8V5.495c0-2.277,1.432-3.573,3.927-3.557Z" transform="translate(3.319 3.96)" fill="#159252"/>
    </g>
    <g id="Group_53" data-name="Group 53" transform="translate(683.299 1196.34)">
      <path id="Path_37" data-name="Path 37" d="M1.106,2.212A2.129,2.129,0,1,0-1.023.083,2.129,2.129,0,0,0,1.106,2.212" transform="translate(1.023 2.046)" fill="#159252"/>
    </g>
  </g>
</svg>
