<svg xmlns="http://www.w3.org/2000/svg" width="62.402" height="39.352" viewBox="0 0 62.402 39.352">
  <g id="Grupo_2317" data-name="Grupo 2317" transform="translate(0.873 0.893)">
    <path id="Trazado_184670" data-name="Trazado 184670" d="M14.925,12.936,32.452,30.386a48.055,48.055,0,0,0-.441-9.06c-1.062-7.378-3.794-13.441-7.9-17.53S13.91-3.018,6.5-4.076A46.089,46.089,0,0,0-3.49-4.452,1.851,1.851,0,0,0-5.157-2.8a46.147,46.147,0,0,0,.379,9.945c1.065,7.381,3.8,13.444,7.907,17.534s10.2,6.814,17.607,7.872a50.025,50.025,0,0,0,6.941.487c.9,0,1.636-.023,2.162-.05L12.312,15.543a1.834,1.834,0,0,1,0-2.606A1.858,1.858,0,0,1,14.925,12.936ZM55.3,8.318a1.847,1.847,0,0,0-1.663-1.659c-.494-.046-12.184-1.073-18.99,5.707-.264.261-.517.533-.759.812A43.437,43.437,0,0,1,35.675,20.8c.123.866.222,1.7.3,2.5l4.833-4.81a1.851,1.851,0,0,1,2.614,0,1.83,1.83,0,0,1,0,2.6L36.2,28.278c0,1.878-.107,3.1-.13,3.346a5.586,5.586,0,0,1-.268,1.246c4.1-.379,9.777-1.667,13.77-5.641C56.382,20.448,55.351,8.809,55.3,8.318Z" transform="translate(5.269 4.567)" fill="none" stroke="#989db8" stroke-width="1.7"/>
  </g>
</svg>