<svg xmlns="http://www.w3.org/2000/svg" width="169" height="169" viewBox="0 0 169 169">
  <g id="Grupo_2266" data-name="Grupo 2266" transform="translate(-510.44 -314.406)">
    <circle id="Ellipse_7" data-name="Ellipse 7" cx="84.5" cy="84.5" r="84.5" transform="translate(510.44 314.406)" fill="#f4f3ee"/>
    <g id="Grupo_2258" data-name="Grupo 2258">
      <g id="Grupo_2257" data-name="Grupo 2257">
        <path id="Trazado_184610" data-name="Trazado 184610" d="M611.062,344.463l2.224-7.207-2.506-.772.382-1.243,6.253,1.928-.382,1.243-2.505-.772-2.223,7.206Z" fill="#161615"/>
        <path id="Trazado_184611" data-name="Trazado 184611" d="M623.945,340.032l1.244.63-.856,9.48-1.244-.629.216-2.41-3.435-1.74-1.812,1.6-1.244-.629Zm-.517,5.722.35-3.847-2.894,2.56Z" fill="#161615"/>
        <path id="Trazado_184612" data-name="Trazado 184612" d="M626.709,351.751l5.343-7.052,1.036.786-2.583,3.41,5.263-1.379,1.219.924-5.409,1.451.333,5.8-1.329-1.005-.309-5.485-2.527,3.334Z" fill="#161615"/>
        <path id="Trazado_184613" data-name="Trazado 184613" d="M634.083,357.8l6.183-6.316.93.91-6.184,6.316Z" fill="#161615"/>
        <path id="Trazado_184614" data-name="Trazado 184614" d="M637.411,361.1l6.984-5.43.8,1.026-2.349,7.746,5.217-4.056.8,1.027-6.671,5.188,0,.014-.006-.009-.305.237-.8-1.027,2.34-7.739-5.209,4.05Z" fill="#161615"/>
        <path id="Trazado_184615" data-name="Trazado 184615" d="M649.706,370.358l2.126,4.191c-.194.121-.38.239-.555.328a4.17,4.17,0,1,1,2.119-5.751,3.9,3.9,0,0,1-.527,4.547l-.635-1.252a2.719,2.719,0,0,0,0-2.692,3.176,3.176,0,0,0-5.633,2.87,2.745,2.745,0,0,0,3.542,1.351l-1.538-3.033Z" fill="#161615"/>
        <path id="Trazado_184616" data-name="Trazado 184616" d="M655.53,387.072l.848,4.622c-.221.062-.432.123-.627.158a4.171,4.171,0,1,1,3.665-4.911,3.9,3.9,0,0,1-1.8,4.209l-.252-1.381a2.719,2.719,0,0,0,.762-2.582,3.177,3.177,0,0,0-6.217,1.152,2.746,2.746,0,0,0,3.013,2.3l-.613-3.345Z" fill="#161615"/>
        <path id="Trazado_184617" data-name="Trazado 184617" d="M660.469,399.848c-.043,2.389-1.923,4.029-4.541,3.982s-4.449-1.753-4.406-4.142,1.922-4.04,4.551-3.994S660.511,397.457,660.469,399.848Zm-4.42-2.856c-1.89-.033-3.221,1.088-3.249,2.719s1.26,2.787,3.151,2.82,3.21-1.065,3.24-2.707S657.92,397.026,656.049,396.992Z" fill="#161615"/>
        <path id="Trazado_184618" data-name="Trazado 184618" d="M658.99,412.618c-.5,2.337-2.665,3.583-5.227,3.032s-4.027-2.581-3.524-4.918,2.669-3.594,5.24-3.04S659.494,410.281,658.99,412.618Zm-3.785-3.655c-1.85-.4-3.372.442-3.715,2.038s.7,2.981,2.546,3.378,3.357-.425,3.7-2.03S657.034,409.358,655.205,408.963Z" fill="#161615"/>
        <path id="Trazado_184619" data-name="Trazado 184619" d="M648.445,417.686l8.136,3.445-1.061,2.508c-1.087,2.566-3.163,3.391-5.767,2.288-2.585-1.094-3.465-3.149-2.407-5.647Zm6.433,4.135-5.743-2.432-.592,1.4a3.122,3.122,0,0,0,5.781,2.346Z" fill="#161615"/>
        <path id="Trazado_184620" data-name="Trazado 184620" d="M644.9,439.026c1.025-1.269.74-2.888-.717-4.063s-3.105-1.1-4.124.16a2.586,2.586,0,0,0-.213,3.048l-.881,1.092a3.853,3.853,0,0,1,.027-4.987c1.521-1.885,3.933-2.011,6.014-.334s2.469,4.062.947,5.949a3.877,3.877,0,0,1-4.868,1.083l.882-1.094A2.612,2.612,0,0,0,644.9,439.026Z" fill="#161615"/>
        <path id="Trazado_184621" data-name="Trazado 184621" d="M637.757,448.3l-1.065.9-8.4-4.488,1.066-.9,2.133,1.138,2.943-2.485-.767-2.294,1.065-.9Zm-5.067-2.709,3.406,1.822-1.228-3.663Z" fill="#161615"/>
        <path id="Trazado_184622" data-name="Trazado 184622" d="M625.94,446.241l4.424,7.656-2.73,1.576a2.873,2.873,0,0,1-3.823-4.182l-3.537-1.777,1.351-.78,3.3,1.707,1.45-.839-1.566-2.71Zm2.646,7.18-1.555-2.692-1.685.973a1.56,1.56,0,1,0,1.638,2.647Z" fill="#161615"/>
        <path id="Trazado_184623" data-name="Trazado 184623" d="M619.056,458.225l-.879-2.3-3.612,1.379-.463-1.213,3.611-1.38-.883-2.311-3.787,1.447-.463-1.215,5-1.91,3.154,8.254-4.913,1.877-.464-1.214Z" fill="#161615"/>
        <path id="Trazado_184624" data-name="Trazado 184624" d="M601.567,463.941c-2.382.241-4.235-1.434-4.5-4.043s1.215-4.631,3.6-4.872,4.246,1.432,4.51,4.051S603.949,463.7,601.567,463.941Zm2.314-4.732c-.191-1.885-1.462-3.074-3.087-2.909s-2.622,1.583-2.431,3.467,1.439,3.065,3.075,2.9S604.07,461.073,603.881,459.209Z" fill="#161615"/>
        <path id="Trazado_184625" data-name="Trazado 184625" d="M593.492,455.407l-.644,8.824-5.252-.383.095-1.3,3.954.287.18-2.46-3.862-.28.1-1.3,3.86.282.276-3.767Z" fill="#161615"/>
        <path id="Trazado_184626" data-name="Trazado 184626" d="M576.369,452.228l1.234.412-1.192,3.561,1.327,5.808-1.421-.475-.891-4.455-3.382,3.027-1.429-.48,4.563-3.838Z" fill="#161615"/>
        <path id="Trazado_184627" data-name="Trazado 184627" d="M563.491,456.209c-2.1-1.148-2.678-3.576-1.419-5.875s3.621-3.127,5.718-1.978,2.687,3.581,1.423,5.888S565.588,457.357,563.491,456.209Zm4.582-2.589c.909-1.66.535-3.358-.9-4.142s-3.056-.18-3.964,1.48-.549,3.34.893,4.128S567.174,455.262,568.073,453.62Z" fill="#161615"/>
        <path id="Trazado_184628" data-name="Trazado 184628" d="M556.026,451.5l-1-.829,2.82-3.4c1.414-1.707,1.5-2.919.274-3.936s-2.393-.7-3.807,1.008l-2.82,3.4-1-.83,2.82-3.4c1.865-2.252,3.822-2.657,5.625-1.163s1.784,3.488-.088,5.748Z" fill="#161615"/>
        <path id="Trazado_184629" data-name="Trazado 184629" d="M545.046,431.155a5.375,5.375,0,0,0-1.937.371l-.734-1.072a6.619,6.619,0,0,1,2.941-.505l.6-2.63.935,1.364-.331,1.447a4.011,4.011,0,0,1,2.4,1.457c.946,1.38.8,2.849-.36,3.647a2.9,2.9,0,0,1-3.2-.1,3.016,3.016,0,0,1-1.089,1.83,2.121,2.121,0,0,1-3.041-.763,2.608,2.608,0,0,1,.76-3.6l.705,1.029a1.449,1.449,0,0,0-.451,1.9.928.928,0,0,0,1.367.285c.412-.282.593-.935.9-2.357Zm.6,2.8c.893.5,1.581.579,2.1.222.557-.382.627-1.161.1-1.933a2.656,2.656,0,0,0-1.595-.948Z" fill="#161615"/>
        <path id="Trazado_184630" data-name="Trazado 184630" d="M541.143,416.346l.42,1.23-3.556,1.212-3.814,4.577-.484-1.418,3-3.41-4.457-.853-.487-1.428,5.819,1.3Z" fill="#161615"/>
        <path id="Trazado_184631" data-name="Trazado 184631" d="M530.189,408.548c-.359-2.363,1.221-4.3,3.809-4.688s4.681.983,5.039,3.346-1.218,4.307-3.818,4.7S530.548,410.911,530.189,408.548Zm4.835,2.074c1.871-.283,2.994-1.61,2.75-3.223s-1.709-2.538-3.58-2.254-2.987,1.588-2.741,3.212S533.174,410.9,535.024,410.622Z" fill="#161615"/>
        <path id="Trazado_184632" data-name="Trazado 184632" d="M529.41,399.732l.053-1.3,4.417.184c2.214.093,3.231-.574,3.3-2.163s-.891-2.328-3.1-2.42l-4.417-.184.053-1.3,4.417.183c2.92.123,4.427,1.435,4.33,3.773s-1.7,3.53-4.628,3.408Z" fill="#161615"/>
        <path id="Trazado_184633" data-name="Trazado 184633" d="M539.018,389.579l-8.631-1.9.678-3.077a2.871,2.871,0,0,1,5.663,0l3.7-1.411-.335,1.523L536.6,386l-.359,1.635,3.055.672Zm-7.082-2.891,3.035.669.419-1.9a1.558,1.558,0,1,0-3.056-.576Z" fill="#161615"/>
        <path id="Trazado_184634" data-name="Trazado 184634" d="M544.088,373.656l-9-1.941.658-1.183,6.455,1.384-4.769-4.422.647-1.163,6.281,1.739-4.6-4.768.657-1.182,6.428,6.64-.646,1.164-6.042-1.677,4.6,4.269-.646,1.164Z" fill="#161615"/>
        <path id="Trazado_184635" data-name="Trazado 184635" d="M545.658,355.623c1.575-1.8,4.07-1.838,6.04-.112s2.267,4.211.691,6.009-4.076,1.846-6.055.113S544.082,357.421,545.658,355.623Zm1.533,5.032c1.423,1.247,3.161,1.25,4.237.023s.836-2.944-.587-4.19-3.139-1.257-4.222-.022S545.784,359.423,547.191,360.655Z" fill="#161615"/>
        <path id="Trazado_184636" data-name="Trazado 184636" d="M557.344,356.328l-5.492-6.928,2.47-1.959a2.873,2.873,0,0,1,4.391,3.582l3.759,1.24-1.223.971-3.518-1.208-1.313,1.041,1.946,2.454Zm-3.665-6.718,1.932,2.439,1.524-1.209a1.559,1.559,0,1,0-2.006-2.38Z" fill="#161615"/>
        <path id="Trazado_184637" data-name="Trazado 184637" d="M569.635,348.039l-4.668,2.627-4.335-7.706,1.133-.637,3.7,6.573,3.535-1.99Z" fill="#161615"/>
        <path id="Trazado_184638" data-name="Trazado 184638" d="M572.476,346.671l-3.009-8.319,2.565-.928c2.623-.948,4.641.014,5.6,2.677.957,2.642.047,4.687-2.508,5.611Zm-1.344-7.538,2.125,5.872,1.429-.517a3.124,3.124,0,0,0-2.212-5.839Z" fill="#161615"/>
      </g>
      <circle id="Elipse_14" data-name="Elipse 14" cx="2.91" cy="2.91" r="2.91" transform="translate(592.624 333.582)" fill="#2b2b2b"/>
    </g>
    <g id="Grupo_2265" data-name="Grupo 2265">
      <g id="Grupo_2263" data-name="Grupo 2263">
        <g id="Grupo_2260" data-name="Grupo 2260">
          <line id="Línea_2" data-name="Línea 2" y1="8.314" x2="1.005" transform="translate(599.954 423.782)" fill="none" stroke="#2b2b2b" stroke-miterlimit="10" stroke-width="1.7"/>
          <g id="Grupo_2259" data-name="Grupo 2259">
            <path id="Trazado_184639" data-name="Trazado 184639" d="M613.156,415.923,618.3,407.9l1.053-10.569-.518.012a4.982,4.982,0,0,0-4.667,3.4c-.467,1.464-.654,3.5-1.63,4.979-.869,1.321-14.244,6.588-11.582,18.06l-1.005,8.314" fill="none" stroke="#2b2b2b" stroke-miterlimit="10" stroke-width="1.7"/>
            <path id="Trazado_184640" data-name="Trazado 184640" d="M618.333,396.693l.137-7.251a4.819,4.819,0,0,1,3.817-4.819l1.076-.238,1.589,21.1a15.61,15.61,0,0,1-4.241,11.9l-8.608,9.11-.959,5.6" fill="none" stroke="#2b2b2b" stroke-miterlimit="10" stroke-width="1.7"/>
          </g>
        </g>
        <g id="Grupo_2262" data-name="Grupo 2262">
          <line id="Línea_3" data-name="Línea 3" x1="1.005" y1="8.314" transform="translate(591.78 423.782)" fill="none" stroke="#2b2b2b" stroke-miterlimit="10" stroke-width="1.7"/>
          <g id="Grupo_2261" data-name="Grupo 2261">
            <path id="Trazado_184641" data-name="Trazado 184641" d="M579.584,415.923l-5.148-8.026-1.053-10.569.518.012a4.984,4.984,0,0,1,4.668,3.4c.466,1.464.654,3.5,1.629,4.979.869,1.321,14.244,6.588,11.582,18.06l1,8.314" fill="none" stroke="#2b2b2b" stroke-miterlimit="10" stroke-width="1.7"/>
            <path id="Trazado_184642" data-name="Trazado 184642" d="M574.407,396.693l-.138-7.251a4.818,4.818,0,0,0-3.817-4.819l-1.076-.238-1.589,21.1a15.61,15.61,0,0,0,4.242,11.9l8.608,9.11.958,5.6" fill="none" stroke="#2b2b2b" stroke-miterlimit="10" stroke-width="1.7"/>
          </g>
        </g>
      </g>
      <g id="Grupo_2264" data-name="Grupo 2264">
        <circle id="Elipse_15" data-name="Elipse 15" cx="16.699" cy="16.699" r="16.699" transform="translate(579.671 365.301)" fill="none" stroke="#2b2b2b" stroke-miterlimit="10" stroke-width="1.7"/>
        <path id="Trazado_184643" data-name="Trazado 184643" d="M588.987,367.433a3.166,3.166,0,0,0,1.882,2.818c1.05.577,2.248.852,3.273,1.472,1.21.733,2.659,2.982,3.671,1.994.652-.637.008-1.824.012-2.736a1.948,1.948,0,0,1,.116-.8c.356-.785,1.451-.745,2.286-.955a3.031,3.031,0,0,0,2.2-2.342" fill="none" stroke="#2b2b2b" stroke-miterlimit="10" stroke-width="1.7"/>
        <path id="Trazado_184644" data-name="Trazado 184644" d="M608.478,370.389a7.79,7.79,0,0,0-2.718,2.248,3.413,3.413,0,0,0-.4,3.37c.659,1.305,2.367,1.993,2.631,3.431.258,1.4-1.04,2.729-.84,4.142a3.946,3.946,0,0,0,.7,1.542q1.42,2.2,2.979,4.3" fill="none" stroke="#2b2b2b" stroke-miterlimit="10" stroke-width="1.7"/>
        <path id="Trazado_184645" data-name="Trazado 184645" d="M592.179,393.465a2.248,2.248,0,0,0,2.314.227,4.233,4.233,0,0,0,1.755-1.627c1.069-1.627,1.508-3.565,2.348-5.315.768-1.6,1.893-3.1,2.079-4.861a2.519,2.519,0,0,0-.411-1.84,2.8,2.8,0,0,0-1.865-.887c-1.38-.186-2.869.073-4.109-.545-1.312-.655-2.075-2.181-3.489-2.586a3.1,3.1,0,0,0-3.466,1.783,5.086,5.086,0,0,0,.155,4.051,22.56,22.56,0,0,0,2.174,3.583,7.961,7.961,0,0,1,1.618,3.947C591.342,390.656,591.091,392.534,592.179,393.465Z" fill="none" stroke="#2b2b2b" stroke-miterlimit="10" stroke-width="1.7"/>
      </g>
    </g>
  </g>
</svg>
